<?xml version="1.0" encoding="utf-8"?>
<!-- Generator: Adobe Illustrator 23.1.1, SVG Export Plug-In . SVG Version: 6.00 Build 0)  -->
<svg version="1.1" id="Layer_1" xmlns="http://www.w3.org/2000/svg" xmlns:xlink="http://www.w3.org/1999/xlink" x="0px" y="0px"
	 viewBox="0 0 186 43" style="enable-background:new 0 0 186 43;" xml:space="preserve">
<style type="text/css">
	.st0{fill:#202020;}
	.st1{fill:#FFFFFF;}
	.st2{fill:#000F46;}
</style>
<path class="st0" d="M70.7,31c-1.3,0.7-2.8,1.2-4.2,1.5c-1.5,0.3-3,0.5-4.5,0.5c-1.6,0-3.1-0.3-4.5-0.8c-1.4-0.5-2.6-1.2-3.6-2.2
	c-1-1-1.8-2.1-2.3-3.4c-0.6-1.3-0.8-2.9-0.8-4.5c0-1.7,0.3-3.2,0.8-4.5c0.6-1.3,1.3-2.5,2.3-3.5c1-1,2.2-1.7,3.6-2.2
	c1.4-0.5,2.9-0.8,4.5-0.8c1.7,0,3.2,0.2,4.6,0.6c1.4,0.4,2.6,1.1,3.7,2.1L67,17.4c-0.6-0.6-1.3-1.1-2.1-1.5
	c-0.8-0.3-1.8-0.5-2.9-0.5c-1,0-1.9,0.2-2.7,0.5c-0.8,0.3-1.5,0.8-2,1.4c-0.6,0.6-1,1.3-1.3,2.1c-0.3,0.8-0.5,1.7-0.5,2.7
	c0,1,0.2,1.9,0.5,2.7c0.3,0.8,0.7,1.5,1.3,2.1s1.2,1.1,2,1.4s1.7,0.5,2.7,0.5c1,0,1.9-0.1,2.6-0.3c0.7-0.2,1.3-0.5,1.7-0.7v-3.4
	h-3.7v-4.2h8.1L70.7,31L70.7,31z"/>
<path class="st0" d="M87.7,30c-0.7,0.9-1.6,1.6-2.7,2.1c-1.1,0.5-2.2,0.7-3.3,0.7c-1.1,0-2.1-0.2-3.1-0.5c-1-0.4-1.8-0.9-2.5-1.5
	c-0.7-0.6-1.3-1.4-1.7-2.4s-0.6-1.9-0.6-3.1s0.2-2.2,0.6-3.1s1-1.7,1.7-2.4c0.7-0.6,1.6-1.2,2.5-1.5s2-0.5,3.1-0.5
	c1,0,1.9,0.2,2.8,0.5c0.8,0.4,1.5,0.9,2.1,1.5c0.6,0.7,1,1.4,1.3,2.4c0.3,0.9,0.5,1.9,0.5,3.1v1.4H78.1c0.2,0.8,0.6,1.5,1.1,2
	c0.6,0.5,1.3,0.7,2.2,0.7c0.7,0,1.3-0.2,1.8-0.5c0.5-0.3,0.9-0.7,1.3-1.2L87.7,30z M83.9,23.7c0-0.7-0.2-1.4-0.7-1.9
	c-0.5-0.5-1.2-0.8-2-0.8c-0.5,0-0.9,0.1-1.3,0.2c-0.4,0.2-0.7,0.4-1,0.6c-0.3,0.2-0.5,0.5-0.6,0.9c-0.2,0.3-0.2,0.7-0.3,1L83.9,23.7
	L83.9,23.7z"/>
<g>
	<path class="st0" d="M90.3,25.4c0-1.1,0.2-2.2,0.6-3.1c0.4-0.9,1-1.7,1.7-2.4c0.7-0.6,1.6-1.2,2.5-1.5s2-0.5,3.1-0.5
		c1.1,0,2.1,0.2,3.1,0.5s1.8,0.9,2.5,1.5s1.3,1.4,1.7,2.4c0.4,0.9,0.6,1.9,0.6,3.1c0,1.1-0.2,2.2-0.6,3.1c-0.4,0.9-1,1.7-1.7,2.4
		c-0.7,0.6-1.6,1.2-2.5,1.5c-1,0.4-2,0.5-3.1,0.5c-1.1,0-2.1-0.2-3.1-0.5c-1-0.4-1.8-0.9-2.5-1.5c-0.7-0.6-1.3-1.4-1.7-2.4
		C90.5,27.5,90.3,26.5,90.3,25.4z M94.7,25.4c0,1.1,0.3,1.9,0.9,2.6c0.6,0.7,1.5,1,2.6,1c1.1,0,2-0.3,2.6-1c0.6-0.7,0.9-1.5,0.9-2.6
		c0-1.1-0.3-1.9-0.9-2.6c-0.6-0.7-1.5-1-2.6-1c-1.1,0-2,0.3-2.6,1C95,23.4,94.7,24.3,94.7,25.4z"/>
</g>
<path class="st0" d="M109.6,28.7c0.5,0.9,1.2,1.5,2,2c0.8,0.4,1.7,0.6,2.8,0.6c0.6,0,1.3-0.1,1.8-0.3c0.6-0.2,1.1-0.5,1.5-0.8
	c0.4-0.4,0.7-0.8,1-1.3c0.2-0.5,0.4-1.1,0.4-1.7c0-0.7-0.2-1.3-0.5-1.8c-0.3-0.5-0.7-0.9-1.2-1.2c-0.5-0.3-1.1-0.6-1.7-0.8
	c-0.6-0.2-1.3-0.4-2-0.6c-0.7-0.2-1.3-0.5-2-0.7c-0.6-0.3-1.2-0.6-1.7-1.1s-0.9-1-1.2-1.7c-0.3-0.7-0.5-1.5-0.5-2.5
	c0-0.9,0.2-1.7,0.5-2.5c0.4-0.7,0.9-1.3,1.5-1.8c0.6-0.5,1.3-0.8,2.1-1.1c0.8-0.2,1.7-0.4,2.5-0.4c1.1,0,2.2,0.2,3.2,0.6
	c1,0.4,1.8,1.1,2.5,2l-1.7,1.2c-0.5-0.7-1.1-1.2-1.7-1.5c-0.7-0.3-1.4-0.5-2.3-0.5c-0.6,0-1.2,0.1-1.8,0.3s-1.1,0.4-1.5,0.7
	c-0.4,0.3-0.8,0.7-1,1.2c-0.3,0.5-0.4,1.1-0.4,1.7c0,1,0.3,1.8,0.8,2.4c0.5,0.6,1.2,1,2,1.3c0.8,0.3,1.7,0.6,2.6,0.9s1.8,0.6,2.6,1
	c0.8,0.4,1.4,1,2,1.7c0.5,0.7,0.8,1.8,0.8,3c0,0.9-0.2,1.8-0.5,2.5c-0.4,0.7-0.8,1.3-1.4,1.8c-0.6,0.5-1.3,0.9-2.1,1.1
	c-0.8,0.3-1.6,0.4-2.4,0.4c-1.4,0-2.6-0.2-3.8-0.7c-1.2-0.5-2.1-1.3-3-2.4L109.6,28.7z"/>
<path class="st0" d="M124.5,18.9h1.8v2.4h0.1c0.3-0.5,0.6-0.9,1-1.2c0.4-0.4,0.9-0.6,1.3-0.9s1-0.4,1.5-0.5c0.5-0.1,1-0.2,1.6-0.2
	c1,0,2,0.2,2.9,0.5c0.9,0.4,1.6,0.9,2.3,1.5c0.6,0.6,1.1,1.4,1.5,2.3c0.4,0.9,0.5,1.8,0.5,2.9s-0.2,2-0.5,2.9
	c-0.4,0.9-0.9,1.6-1.5,2.3c-0.6,0.6-1.4,1.1-2.3,1.5c-0.9,0.4-1.8,0.5-2.9,0.5c-0.5,0-1-0.1-1.6-0.2c-0.5-0.1-1-0.3-1.5-0.5
	c-0.5-0.2-0.9-0.5-1.3-0.9s-0.7-0.7-1-1.2h-0.1v9.1h-1.8V18.9z M126.1,25.7c0,0.8,0.2,1.5,0.4,2.2c0.3,0.7,0.7,1.3,1.2,1.8
	c0.5,0.5,1.1,0.9,1.8,1.2s1.4,0.4,2.2,0.4c0.8,0,1.6-0.2,2.2-0.4c0.7-0.3,1.2-0.7,1.7-1.2c0.5-0.5,0.8-1.1,1.1-1.8
	c0.2-0.7,0.4-1.4,0.4-2.2c0-0.8-0.1-1.5-0.4-2.2c-0.2-0.7-0.6-1.3-1.1-1.8c-0.5-0.5-1-0.9-1.7-1.2c-0.7-0.3-1.4-0.4-2.2-0.4
	c-0.8,0-1.6,0.2-2.2,0.4c-0.7,0.3-1.3,0.7-1.8,1.2c-0.5,0.5-0.9,1.1-1.2,1.8C126.2,24.2,126.1,25,126.1,25.7z"/>
<path class="st0" d="M142,25.7c0-1,0.2-2,0.5-2.9c0.4-0.9,0.8-1.6,1.5-2.3c0.6-0.6,1.4-1.1,2.3-1.5c0.9-0.4,1.8-0.5,2.9-0.5
	s2,0.2,2.9,0.5c0.9,0.4,1.6,0.9,2.3,1.5s1.1,1.4,1.5,2.3c0.4,0.9,0.5,1.8,0.5,2.9s-0.2,2-0.5,2.9c-0.4,0.9-0.9,1.6-1.5,2.3
	c-0.6,0.6-1.4,1.1-2.3,1.5c-0.9,0.4-1.8,0.5-2.9,0.5c-1,0-2-0.2-2.9-0.5c-0.9-0.4-1.6-0.9-2.3-1.5c-0.6-0.6-1.1-1.4-1.5-2.3
	C142.2,27.7,142,26.8,142,25.7z M143.8,25.7c0,0.8,0.1,1.5,0.4,2.2s0.6,1.3,1.1,1.8c0.5,0.5,1,0.9,1.7,1.2c0.7,0.3,1.4,0.4,2.2,0.4
	s1.6-0.2,2.2-0.4c0.7-0.3,1.2-0.7,1.7-1.2c0.5-0.5,0.8-1.1,1.1-1.8c0.2-0.7,0.4-1.4,0.4-2.2c0-0.8-0.1-1.5-0.4-2.2
	c-0.2-0.7-0.6-1.3-1.1-1.8c-0.5-0.5-1-0.9-1.7-1.2c-0.7-0.3-1.4-0.4-2.2-0.4s-1.6,0.2-2.2,0.4c-0.7,0.3-1.2,0.7-1.7,1.2
	c-0.5,0.5-0.8,1.1-1.1,1.8C143.9,24.2,143.8,25,143.8,25.7z"/>
<path class="st0" d="M171.6,30.5c-0.7,0.8-1.4,1.4-2.3,1.8c-0.8,0.4-1.8,0.6-2.7,0.6c-1,0-2-0.2-2.9-0.5c-0.9-0.4-1.6-0.9-2.3-1.5
	c-0.6-0.6-1.1-1.4-1.5-2.3c-0.4-0.9-0.5-1.8-0.5-2.9s0.2-2,0.5-2.9c0.4-0.9,0.8-1.6,1.5-2.3c0.6-0.6,1.4-1.1,2.3-1.5
	s1.8-0.5,2.9-0.5c1,0,1.9,0.2,2.8,0.6c0.9,0.4,1.6,1,2.3,1.7l-1.4,1.1c-0.5-0.6-1.1-1-1.7-1.3c-0.6-0.3-1.3-0.5-2-0.5
	c-0.8,0-1.6,0.2-2.2,0.4c-0.7,0.3-1.2,0.7-1.7,1.2c-0.5,0.5-0.8,1.1-1.1,1.8c-0.2,0.7-0.4,1.4-0.4,2.2c0,0.8,0.1,1.5,0.4,2.2
	s0.6,1.3,1.1,1.8c0.5,0.5,1,0.9,1.7,1.2s1.4,0.4,2.2,0.4c0.7,0,1.4-0.2,2-0.5c0.6-0.3,1.2-0.8,1.6-1.4L171.6,30.5z"/>
<g>
	<path class="st0" d="M174.2,10.3h1.8v14.8l6.7-6.1h2.6l-7,6.2l7.8,7.3h-2.7l-7.4-7.2v7.2h-1.8L174.2,10.3L174.2,10.3z"/>
</g>
<circle id="Logo_BG" class="st1" cx="21.5" cy="21.4" r="20.1"/>
<path class="st2" d="M21.5,0C9.6,0,0,9.6,0,21.5S9.6,43,21.5,43S43,33.4,43,21.5S33.4,0,21.5,0z M36.8,29
	c-4.2,8.4-14.4,11.9-22.8,7.7S2.1,22.4,6.3,13.9S20.7,2.1,29.1,6.2c3,1.5,5.5,3.9,7.2,6.8h-1.9c-3.8-5.7-10.8-8.2-17.3-6.2l2.5-0.2
	c2.9,0,5.8,0.8,8.2,2.4c-6.9-3.4-15.2-0.6-18.6,6.3c-3.4,6.9-0.6,15.2,6.3,18.6c3.9,1.9,8.5,1.9,12.4,0c-2.4,1.6-5.3,2.5-8.2,2.5
	l-2.5-0.2c8.1,2.4,16.7-2.2,19.2-10.3c0.1-0.2,0.1-0.3,0.1-0.5c0.7,0.8,0.7,1.9,0.3,3.7L36.8,29z M31.8,23.9l0.1-0.1
	C27.2,24,20,27.1,18,26.2c-4-1.8,3.2-6,3.2-6c-0.8,0.6-1.6,1.3-2.2,2.1c-2.3,2.9,1,2.4,5.3,0.5c9.8-4.4,12.6-3.8,13.8-1
	S37,28.9,37,28.9C38,24.8,36.6,23.6,31.8,23.9z"/>
</svg>
